<svg xmlns="http://www.w3.org/2000/svg" width="580" height="108" viewBox="0 0 580 108">
 <defs><filter id="g38" x="-5%" y="-20%" width="110%" height="140%"><feGaussianBlur stdDeviation="2.2"/></filter></defs>
 <rect width="580" height="108" rx="6" fill="#070b10"/>
 <line x1="0" y1="0" x2="0" y2="108" stroke="#2f3b4a" stroke-width="1"/><line x1="72" y1="0" x2="72" y2="108" stroke="#2f3b4a" stroke-width="1"/><line x1="144" y1="0" x2="144" y2="108" stroke="#2f3b4a" stroke-width="1"/><line x1="216" y1="0" x2="216" y2="108" stroke="#2f3b4a" stroke-width="1"/><line x1="288" y1="0" x2="288" y2="108" stroke="#2f3b4a" stroke-width="1"/><line x1="360" y1="0" x2="360" y2="108" stroke="#2f3b4a" stroke-width="1"/><line x1="432" y1="0" x2="432" y2="108" stroke="#2f3b4a" stroke-width="1"/><line x1="504" y1="0" x2="504" y2="108" stroke="#2f3b4a" stroke-width="1"/><line x1="576" y1="0" x2="576" y2="108" stroke="#2f3b4a" stroke-width="1"/><line x1="0" y1="27" x2="580" y2="27" stroke="#2f3b4a" stroke-width="1"/><line x1="0" y1="54" x2="580" y2="54" stroke="#2f3b4a" stroke-width="1"/><line x1="0" y1="81" x2="580" y2="81" stroke="#2f3b4a" stroke-width="1"/>
 <polyline points="10.0,55.6 10.8,51.2 11.7,47.8 12.5,44.9 13.3,41.8 14.2,38.7 15.0,36.5 15.8,33.3 16.7,30.2 17.5,27.2 18.3,24.0 19.2,20.7 20.0,18.7 20.8,17.4 21.6,17.0 22.5,17.5 23.3,19.6 24.1,22.0 25.0,23.9 25.8,26.0 26.6,27.5 27.5,28.3 28.3,28.2 29.1,29.0 30.0,27.9 30.8,27.0 31.6,26.6 32.5,25.7 33.3,24.7 34.1,24.5 35.0,25.0 35.8,24.6 36.6,25.0 37.5,25.2 38.3,25.1 39.1,24.4 40.0,23.7 40.8,22.8 41.6,21.5 42.5,20.1 43.3,19.0 44.1,17.2 44.9,15.5 45.8,15.0 46.6,14.5 47.4,14.4 48.3,15.2 49.1,16.5 49.9,17.6 50.8,18.8 51.6,20.1 52.4,21.3 53.3,22.6 54.1,23.7 54.9,24.4 55.8,24.6 56.6,24.4 57.4,23.9 58.3,23.0 59.1,22.0 59.9,21.4 60.8,21.0 61.6,21.6 62.4,22.8 63.3,24.8 64.1,27.3 64.9,30.5 65.8,34.3 66.6,37.9 67.4,41.3 68.2,43.2 69.1,44.8 69.9,46.3 70.7,46.8 71.6,47.6 72.4,48.9 73.2,50.4 74.1,51.2 74.9,53.0 75.7,54.0 76.6,53.4 77.4,53.0 78.2,51.8 79.1,49.8 79.9,47.7 80.7,46.6 81.6,45.5 82.4,45.2 83.2,46.3 84.1,48.1 84.9,50.5 85.7,52.8 86.6,54.9 87.4,56.2 88.2,56.5 89.0,56.5 89.9,55.9 90.7,55.0 91.5,54.9 92.4,55.8 93.2,56.6 94.0,57.6 94.9,60.6 95.7,62.5 96.5,64.0 97.4,65.3 98.2,66.0 99.0,66.1 99.9,66.9 100.7,68.3 101.5,69.2 102.4,71.3 103.2,74.1 104.0,77.2 104.9,80.3 105.7,83.0 106.5,84.8 107.4,85.7 108.2,86.1 109.0,85.3 109.9,83.9 110.7,82.5 111.5,81.0 112.3,80.3 113.2,80.2 114.0,80.2 114.8,80.3 115.7,81.4 116.5,82.0 117.3,82.8 118.2,84.0 119.0,85.3 119.8,85.9 120.7,86.7 121.5,87.4 122.3,87.2 123.2,86.9 124.0,86.5 124.8,85.4 125.7,83.5 126.5,82.4 127.3,81.4 128.2,80.4 129.0,79.8 129.8,80.0 130.7,80.3 131.5,80.7 132.3,81.4 133.2,83.1 134.0,83.8 134.8,84.5 135.6,85.6 136.5,84.9 137.3,84.4 138.1,84.1 139.0,83.6 139.8,81.7 140.6,81.6 141.5,81.0 142.3,79.6 143.1,79.2 144.0,79.5 144.8,79.9 145.6,80.4 146.5,81.9 147.3,82.3 148.1,82.3 149.0,81.8 149.8,81.0 150.6,79.0 151.5,76.3 152.3,73.4 153.1,69.8 154.0,65.3 154.8,61.7 155.6,58.4 156.4,54.7 157.3,51.9 158.1,49.7 158.9,47.1 159.8,43.8 160.6,41.7 161.4,38.9 162.3,36.2 163.1,33.8 163.9,32.5 164.8,31.1 165.6,30.5 166.4,31.2 167.3,32.6 168.1,34.0 168.9,37.1 169.8,40.7 170.6,43.2 171.4,46.0 172.3,48.5 173.1,50.0 173.9,50.6 174.8,51.1 175.6,49.6 176.4,47.4 177.3,44.8 178.1,41.6 178.9,37.7 179.7,34.3 180.6,31.8 181.4,29.3 182.2,27.7 183.1,26.8 183.9,26.6 184.7,25.8 185.6,25.4 186.4,24.8 187.2,24.0 188.1,23.3 188.9,23.1 189.7,22.6 190.6,22.1 191.4,22.7 192.2,23.0 193.1,23.7 193.9,24.6 194.7,26.0 195.6,27.1 196.4,28.8 197.2,30.9 198.1,33.0 198.9,35.6 199.7,38.2 200.5,40.8 201.4,43.1 202.2,44.9 203.0,45.4 203.9,44.7 204.7,43.5 205.5,41.2 206.4,39.1 207.2,37.2 208.0,36.0 208.9,35.5 209.7,36.2 210.5,38.0 211.4,40.3 212.2,42.6 213.0,44.9 213.9,46.7 214.7,48.2 215.5,49.9 216.4,51.5 217.2,53.4 218.0,55.7 218.9,58.7 219.7,60.9 220.5,62.9 221.4,63.6 222.2,62.8 223.0,60.9 223.8,57.9 224.7,54.5 225.5,50.7 226.3,47.9 227.2,45.9 228.0,45.2 228.8,45.6 229.7,48.1 230.5,51.3 231.3,54.7 232.2,57.9 233.0,60.6 233.8,62.8 234.7,64.8 235.5,66.5 236.3,67.6 237.2,69.5 238.0,71.8 238.8,74.1 239.7,76.0 240.5,77.4 241.3,77.6 242.2,77.4 243.0,76.6 243.8,75.3 244.7,73.8 245.5,73.0 246.3,73.1 247.1,74.0 248.0,76.3 248.8,78.7 249.6,81.0 250.5,83.4 251.3,85.2 252.1,85.9 253.0,86.0 253.8,86.0 254.6,84.8 255.5,83.6 256.3,82.6 257.1,81.5 258.0,80.5 258.8,80.1 259.6,79.7 260.5,78.6 261.3,78.5 262.1,78.4 263.0,78.5 263.8,79.0 264.6,80.2 265.5,81.1 266.3,81.8 267.1,82.6 267.9,82.5 268.8,81.4 269.6,79.4 270.4,76.9 271.3,72.7 272.1,68.9 272.9,65.4 273.8,62.3 274.6,59.4 275.4,58.6 276.3,58.4 277.1,58.4 277.9,59.7 278.8,61.9 279.6,64.1 280.4,66.6 281.3,69.8 282.1,71.7 282.9,73.5 283.8,75.2 284.6,76.2 285.4,75.5 286.3,74.4 287.1,72.2 287.9,68.7 288.8,64.1 289.6,60.1 290.4,55.9 291.2,51.5 292.1,48.2 292.9,45.4 293.7,42.3 294.6,39.3 295.4,37.1 296.2,34.0 297.1,30.9 297.9,28.0 298.7,24.8 299.6,21.5 300.4,19.4 301.2,18.1 302.1,17.7 302.9,18.1 303.7,19.9 304.6,22.5 305.4,24.3 306.2,26.4 307.1,27.9 307.9,28.8 308.7,28.7 309.6,29.5 310.4,28.7 311.2,27.6 312.1,27.4 312.9,26.5 313.7,25.6 314.5,25.3 315.4,25.9 316.2,25.5 317.0,25.8 317.9,26.1 318.7,26.0 319.5,25.4 320.4,24.7 321.2,23.9 322.0,22.7 322.9,21.2 323.7,20.2 324.5,18.5 325.4,16.8 326.2,16.2 327.0,15.7 327.9,15.5 328.7,16.1 329.5,17.5 330.4,18.5 331.2,19.8 332.0,21.0 332.9,22.2 333.7,23.4 334.5,24.6 335.3,25.3 336.2,25.6 337.0,25.4 337.8,24.9 338.7,24.1 339.5,23.1 340.3,22.4 341.2,22.1 342.0,22.7 342.8,23.7 343.7,25.7 344.5,28.1 345.3,31.2 346.2,35.0 347.0,38.6 347.8,42.1 348.7,44.0 349.5,45.6 350.3,47.1 351.2,47.7 352.0,48.4 352.8,49.6 353.7,51.1 354.5,51.9 355.3,53.5 356.2,54.7 357.0,54.2 357.8,53.8 358.6,52.8 359.5,50.8 360.3,48.7 361.1,47.6 362.0,46.5 362.8,46.1 363.6,47.1 364.5,48.9 365.3,51.2 366.1,53.5 367.0,55.5 367.8,57.0 368.6,57.3 369.5,57.3 370.3,56.8 371.1,55.8 372.0,55.6 372.8,56.4 373.6,57.2 374.5,58.1 375.3,61.0 376.1,63.0 377.0,64.5 377.8,65.9 378.6,66.6 379.5,66.8 380.3,67.4 381.1,68.9 381.9,69.8 382.8,71.7 383.6,74.5 384.4,77.5 385.3,80.6 386.1,83.3 386.9,85.2 387.8,86.1 388.6,86.6 389.4,85.8 390.3,84.5 391.1,83.1 391.9,81.6 392.8,80.9 393.6,80.7 394.4,80.8 395.3,80.8 396.1,81.8 396.9,82.5 397.8,83.2 398.6,84.3 399.4,85.6 400.3,86.3 401.1,87.0 401.9,87.7 402.7,87.6 403.6,87.3 404.4,87.0 405.2,85.9 406.1,84.1 406.9,82.9 407.7,81.9 408.6,80.8 409.4,80.2 410.2,80.4 411.1,80.6 411.9,81.0 412.7,81.7 413.6,83.3 414.4,84.0 415.2,84.7 416.1,85.8 416.9,85.2 417.7,84.5 418.6,84.1 419.4,83.8 420.2,81.8 421.1,81.5 421.9,81.1 422.7,79.6 423.6,79.2 424.4,79.5 425.2,79.9 426.0,80.3 426.9,81.8 427.7,82.3 428.5,82.3 429.4,81.8 430.2,81.0 431.0,79.1 431.9,76.5 432.7,73.6 433.5,70.2 434.4,65.7 435.2,61.9 436.0,58.7 436.9,55.0 437.7,52.0 438.5,49.7 439.4,47.2 440.2,44.0 441.0,41.7 441.9,39.0 442.7,36.2 443.5,33.9 444.4,32.4 445.2,31.1 446.0,30.2 446.8,30.8 447.7,32.2 448.5,33.5 449.3,36.4 450.2,40.0 451.0,42.6 451.8,45.3 452.7,47.9 453.5,49.5 454.3,50.0 455.2,50.6 456.0,49.3 456.8,47.1 457.7,44.6 458.5,41.4 459.3,37.6 460.2,34.0 461.0,31.5 461.8,29.1 462.7,27.4 463.5,26.4 464.3,26.2 465.2,25.4 466.0,24.9 466.8,24.4 467.7,23.6 468.5,22.9 469.3,22.6 470.1,22.1 471.0,21.5 471.8,22.1 472.6,22.4 473.5,23.0 474.3,24.0 475.1,25.4 476.0,26.4 476.8,28.0 477.6,30.1 478.5,32.2 479.3,34.7 480.1,37.3 481.0,39.8 481.8,42.1 482.6,44.0 483.5,44.6 484.3,43.9 485.1,42.8 486.0,40.6 486.8,38.5 487.6,36.6 488.5,35.3 489.3,34.8 490.1,35.3 491.0,37.0 491.8,39.3 492.6,41.6 493.4,43.9 494.3,45.8 495.1,47.2 495.9,48.9 496.8,50.5 497.6,52.4 498.4,54.7 499.3,57.6 500.1,59.9 500.9,61.9 501.8,62.8 502.6,62.0 503.4,60.2 504.3,57.3 505.1,54.0 505.9,50.2 506.8,47.4 507.6,45.2 508.4,44.4 509.3,44.7 510.1,47.0 510.9,50.2 511.8,53.6 512.6,56.7 513.4,59.5 514.2,61.7 515.1,63.7 515.9,65.4 516.7,66.5 517.6,68.3 518.4,70.6 519.2,72.9 520.1,74.8 520.9,76.3 521.7,76.6 522.6,76.4 523.4,75.6 524.2,74.4 525.1,72.9 525.9,72.0 526.7,72.1 527.6,72.9 528.4,75.0 529.2,77.5 530.1,79.8 530.9,82.2 531.7,84.1 532.6,84.9 533.4,85.0 534.2,85.1 535.1,84.0 535.9,82.7 536.7,81.8 537.5,80.7 538.4,79.6 539.2,79.1 540.0,78.8 540.9,77.7 541.7,77.5 542.5,77.5 543.4,77.5 544.2,78.1 545.0,79.3 545.9,80.2 546.7,80.9 547.5,81.7 548.4,81.7 549.2,80.7 550.0,78.8 550.9,76.5 551.7,72.4 552.5,68.6 553.4,65.1 554.2,62.0 555.0,59.2 555.9,58.2 556.7,58.0 557.5,57.9 558.4,59.1 559.2,61.3 560.0,63.5 560.8,65.9 561.7,69.1 562.5,71.1 563.3,72.9 564.2,74.6 565.0,75.7 565.8,75.2 566.7,74.2 567.5,72.2 568.3,68.8 569.2,64.3 570.0,60.3" fill="none" stroke="#5cb3ff" stroke-width="5" opacity="0.35" filter="url(#g38)"/>
 <polyline points="10.0,55.6 10.8,51.2 11.7,47.8 12.5,44.9 13.3,41.8 14.2,38.7 15.0,36.5 15.8,33.3 16.7,30.2 17.5,27.2 18.3,24.0 19.2,20.7 20.0,18.7 20.8,17.4 21.6,17.0 22.5,17.5 23.3,19.6 24.1,22.0 25.0,23.9 25.8,26.0 26.6,27.5 27.5,28.3 28.3,28.2 29.1,29.0 30.0,27.9 30.8,27.0 31.6,26.6 32.5,25.7 33.3,24.7 34.1,24.5 35.0,25.0 35.8,24.6 36.6,25.0 37.5,25.2 38.3,25.1 39.1,24.4 40.0,23.7 40.8,22.8 41.6,21.5 42.5,20.1 43.3,19.0 44.1,17.2 44.9,15.5 45.8,15.0 46.6,14.5 47.4,14.4 48.3,15.2 49.1,16.5 49.9,17.6 50.8,18.8 51.6,20.1 52.4,21.3 53.3,22.6 54.1,23.7 54.9,24.4 55.8,24.6 56.6,24.4 57.4,23.9 58.3,23.0 59.1,22.0 59.9,21.4 60.8,21.0 61.6,21.6 62.4,22.8 63.3,24.8 64.1,27.3 64.9,30.5 65.8,34.3 66.6,37.9 67.4,41.3 68.2,43.2 69.1,44.8 69.9,46.3 70.7,46.8 71.6,47.6 72.4,48.9 73.2,50.4 74.1,51.2 74.9,53.0 75.7,54.0 76.6,53.4 77.4,53.0 78.2,51.8 79.1,49.8 79.9,47.7 80.7,46.6 81.6,45.5 82.4,45.2 83.2,46.3 84.1,48.1 84.9,50.5 85.7,52.8 86.6,54.9 87.4,56.2 88.2,56.5 89.0,56.5 89.9,55.9 90.7,55.0 91.5,54.9 92.4,55.8 93.2,56.6 94.0,57.6 94.9,60.6 95.7,62.5 96.5,64.0 97.4,65.3 98.2,66.0 99.0,66.1 99.9,66.9 100.7,68.3 101.5,69.2 102.4,71.3 103.2,74.1 104.0,77.2 104.9,80.3 105.7,83.0 106.5,84.8 107.4,85.7 108.2,86.1 109.0,85.3 109.9,83.9 110.7,82.5 111.5,81.0 112.3,80.3 113.2,80.2 114.0,80.2 114.8,80.3 115.7,81.4 116.5,82.0 117.3,82.8 118.2,84.0 119.0,85.3 119.8,85.9 120.7,86.7 121.5,87.4 122.3,87.2 123.2,86.9 124.0,86.5 124.8,85.4 125.7,83.5 126.5,82.4 127.3,81.4 128.2,80.4 129.0,79.8 129.8,80.0 130.7,80.3 131.5,80.7 132.3,81.4 133.2,83.1 134.0,83.8 134.8,84.5 135.6,85.6 136.5,84.9 137.3,84.4 138.1,84.1 139.0,83.6 139.8,81.7 140.6,81.6 141.5,81.0 142.3,79.6 143.1,79.2 144.0,79.5 144.8,79.9 145.6,80.4 146.5,81.9 147.3,82.3 148.1,82.3 149.0,81.8 149.8,81.0 150.6,79.0 151.5,76.3 152.3,73.4 153.1,69.8 154.0,65.3 154.8,61.7 155.6,58.4 156.4,54.7 157.3,51.9 158.1,49.7 158.9,47.1 159.8,43.8 160.6,41.7 161.4,38.9 162.3,36.2 163.1,33.8 163.9,32.5 164.8,31.1 165.6,30.5 166.4,31.2 167.3,32.6 168.1,34.0 168.9,37.1 169.8,40.7 170.6,43.2 171.4,46.0 172.3,48.5 173.1,50.0 173.9,50.6 174.8,51.1 175.6,49.6 176.4,47.4 177.3,44.8 178.1,41.6 178.9,37.7 179.7,34.3 180.6,31.8 181.4,29.3 182.2,27.7 183.1,26.8 183.9,26.6 184.7,25.8 185.6,25.4 186.4,24.8 187.2,24.0 188.1,23.3 188.9,23.1 189.7,22.6 190.6,22.1 191.4,22.7 192.2,23.0 193.1,23.7 193.9,24.6 194.7,26.0 195.6,27.1 196.4,28.8 197.2,30.9 198.1,33.0 198.9,35.6 199.7,38.2 200.5,40.8 201.4,43.1 202.2,44.9 203.0,45.4 203.9,44.7 204.7,43.5 205.5,41.2 206.4,39.1 207.2,37.2 208.0,36.0 208.9,35.5 209.7,36.2 210.5,38.0 211.4,40.3 212.2,42.6 213.0,44.9 213.9,46.7 214.7,48.2 215.5,49.9 216.4,51.5 217.2,53.4 218.0,55.7 218.9,58.7 219.7,60.9 220.5,62.9 221.4,63.6 222.2,62.8 223.0,60.9 223.8,57.9 224.7,54.5 225.5,50.7 226.3,47.9 227.2,45.9 228.0,45.2 228.8,45.6 229.7,48.1 230.5,51.3 231.3,54.7 232.2,57.9 233.0,60.6 233.8,62.8 234.7,64.8 235.5,66.5 236.3,67.6 237.2,69.5 238.0,71.8 238.8,74.1 239.7,76.0 240.5,77.4 241.3,77.6 242.2,77.4 243.0,76.6 243.8,75.3 244.7,73.8 245.5,73.0 246.3,73.1 247.1,74.0 248.0,76.3 248.8,78.7 249.6,81.0 250.5,83.4 251.3,85.2 252.1,85.9 253.0,86.0 253.8,86.0 254.6,84.8 255.5,83.6 256.3,82.6 257.1,81.5 258.0,80.5 258.8,80.1 259.6,79.7 260.5,78.6 261.3,78.5 262.1,78.4 263.0,78.5 263.8,79.0 264.6,80.2 265.5,81.1 266.3,81.8 267.1,82.6 267.9,82.5 268.8,81.4 269.6,79.4 270.4,76.9 271.3,72.7 272.1,68.9 272.9,65.4 273.8,62.3 274.6,59.4 275.4,58.6 276.3,58.4 277.1,58.4 277.9,59.7 278.8,61.9 279.6,64.1 280.4,66.6 281.3,69.8 282.1,71.7 282.9,73.5 283.8,75.2 284.6,76.2 285.4,75.5 286.3,74.4 287.1,72.2 287.9,68.7 288.8,64.1 289.6,60.1 290.4,55.9 291.2,51.5 292.1,48.2 292.9,45.4 293.7,42.3 294.6,39.3 295.4,37.1 296.2,34.0 297.1,30.9 297.9,28.0 298.7,24.8 299.6,21.5 300.4,19.4 301.2,18.1 302.1,17.7 302.9,18.1 303.7,19.9 304.6,22.5 305.4,24.3 306.2,26.4 307.1,27.9 307.9,28.8 308.7,28.7 309.6,29.5 310.4,28.7 311.2,27.6 312.1,27.4 312.9,26.5 313.7,25.6 314.5,25.3 315.4,25.9 316.2,25.5 317.0,25.8 317.9,26.1 318.7,26.0 319.5,25.4 320.4,24.7 321.2,23.9 322.0,22.7 322.9,21.2 323.7,20.2 324.5,18.5 325.4,16.8 326.2,16.2 327.0,15.7 327.9,15.5 328.7,16.1 329.5,17.5 330.4,18.5 331.2,19.8 332.0,21.0 332.9,22.2 333.7,23.4 334.5,24.6 335.3,25.3 336.2,25.6 337.0,25.4 337.8,24.9 338.7,24.1 339.5,23.1 340.3,22.4 341.2,22.1 342.0,22.7 342.8,23.7 343.7,25.7 344.5,28.1 345.3,31.2 346.2,35.0 347.0,38.6 347.8,42.1 348.7,44.0 349.5,45.6 350.3,47.1 351.2,47.7 352.0,48.4 352.8,49.6 353.7,51.1 354.5,51.9 355.3,53.5 356.2,54.7 357.0,54.2 357.8,53.8 358.6,52.8 359.5,50.8 360.3,48.7 361.1,47.6 362.0,46.5 362.8,46.1 363.6,47.1 364.5,48.9 365.3,51.2 366.1,53.5 367.0,55.5 367.8,57.0 368.6,57.3 369.5,57.3 370.3,56.8 371.1,55.8 372.0,55.6 372.8,56.4 373.6,57.2 374.5,58.1 375.3,61.0 376.1,63.0 377.0,64.5 377.8,65.9 378.6,66.6 379.5,66.8 380.3,67.4 381.1,68.9 381.9,69.8 382.8,71.7 383.6,74.5 384.4,77.5 385.3,80.6 386.1,83.3 386.9,85.2 387.8,86.1 388.6,86.6 389.4,85.8 390.3,84.5 391.1,83.1 391.9,81.6 392.8,80.9 393.6,80.7 394.4,80.8 395.3,80.8 396.1,81.8 396.9,82.5 397.8,83.2 398.6,84.3 399.4,85.6 400.3,86.3 401.1,87.0 401.9,87.7 402.7,87.6 403.6,87.3 404.4,87.0 405.2,85.9 406.1,84.1 406.9,82.9 407.7,81.9 408.6,80.8 409.4,80.2 410.2,80.4 411.1,80.6 411.9,81.0 412.7,81.7 413.6,83.3 414.4,84.0 415.2,84.7 416.1,85.8 416.9,85.2 417.7,84.5 418.6,84.1 419.4,83.8 420.2,81.8 421.1,81.5 421.9,81.1 422.7,79.6 423.6,79.2 424.4,79.5 425.2,79.9 426.0,80.3 426.9,81.8 427.7,82.3 428.5,82.3 429.4,81.8 430.2,81.0 431.0,79.1 431.9,76.5 432.7,73.6 433.5,70.2 434.4,65.7 435.2,61.9 436.0,58.7 436.9,55.0 437.7,52.0 438.5,49.7 439.4,47.2 440.2,44.0 441.0,41.7 441.9,39.0 442.7,36.2 443.5,33.9 444.4,32.4 445.2,31.1 446.0,30.2 446.8,30.8 447.7,32.2 448.5,33.5 449.3,36.4 450.2,40.0 451.0,42.6 451.8,45.3 452.7,47.9 453.5,49.5 454.3,50.0 455.2,50.6 456.0,49.3 456.8,47.1 457.7,44.6 458.5,41.4 459.3,37.6 460.2,34.0 461.0,31.5 461.8,29.1 462.7,27.4 463.5,26.4 464.3,26.2 465.2,25.4 466.0,24.9 466.8,24.4 467.7,23.6 468.5,22.9 469.3,22.6 470.1,22.1 471.0,21.5 471.8,22.1 472.6,22.4 473.5,23.0 474.3,24.0 475.1,25.4 476.0,26.4 476.8,28.0 477.6,30.1 478.5,32.2 479.3,34.7 480.1,37.3 481.0,39.8 481.8,42.1 482.6,44.0 483.5,44.6 484.3,43.9 485.1,42.8 486.0,40.6 486.8,38.5 487.6,36.6 488.5,35.3 489.3,34.8 490.1,35.3 491.0,37.0 491.8,39.3 492.6,41.6 493.4,43.9 494.3,45.8 495.1,47.2 495.9,48.9 496.8,50.5 497.6,52.4 498.4,54.7 499.3,57.6 500.1,59.9 500.9,61.9 501.8,62.8 502.6,62.0 503.4,60.2 504.3,57.3 505.1,54.0 505.9,50.2 506.8,47.4 507.6,45.2 508.4,44.4 509.3,44.7 510.1,47.0 510.9,50.2 511.8,53.6 512.6,56.7 513.4,59.5 514.2,61.7 515.1,63.7 515.9,65.4 516.7,66.5 517.6,68.3 518.4,70.6 519.2,72.9 520.1,74.8 520.9,76.3 521.7,76.6 522.6,76.4 523.4,75.6 524.2,74.4 525.1,72.9 525.9,72.0 526.7,72.1 527.6,72.9 528.4,75.0 529.2,77.5 530.1,79.8 530.9,82.2 531.7,84.1 532.6,84.9 533.4,85.0 534.2,85.1 535.1,84.0 535.9,82.7 536.7,81.8 537.5,80.7 538.4,79.6 539.2,79.1 540.0,78.8 540.9,77.7 541.7,77.5 542.5,77.5 543.4,77.5 544.2,78.1 545.0,79.3 545.9,80.2 546.7,80.9 547.5,81.7 548.4,81.7 549.2,80.7 550.0,78.8 550.9,76.5 551.7,72.4 552.5,68.6 553.4,65.1 554.2,62.0 555.0,59.2 555.9,58.2 556.7,58.0 557.5,57.9 558.4,59.1 559.2,61.3 560.0,63.5 560.8,65.9 561.7,69.1 562.5,71.1 563.3,72.9 564.2,74.6 565.0,75.7 565.8,75.2 566.7,74.2 567.5,72.2 568.3,68.8 569.2,64.3 570.0,60.3" fill="none" stroke="#5cb3ff" stroke-width="2.2" stroke-linejoin="round"/>
</svg>
